<svg id="Bahan_copy_5" viewBox="0 0 64 64" xmlns="http://www.w3.org/2000/svg" data-name="Bahan copy 5"><g fill="rgb(0,0,0)"><path d="m59 29.83789h-32.30151c-.443-3.644-3.25843-6.46582-6.66382-6.46582-3.405 0-6.2204 2.82178-6.66333 6.46582h-8.37134a1 1 0 0 0 0 2h8.37134c.44293 3.644 3.25836 6.46582 6.66333 6.46582 3.40539 0 6.22082-2.82178 6.66382-6.46582h32.30151a1.00013 1.00013 0 0 0 0-2zm-38.96533 6.46582c-6.24735-.21525-6.24561-10.71763.00012-10.93164 6.24783.21546 6.24609 10.71742-.00012 10.93164z"/><path d="m5 12.46582h32.301c.443 3.644 3.25842 6.46582 6.66381 6.46582s6.22083-2.82178 6.66382-6.46582h8.37137a1 1 0 0 0 0-2h-8.37134c-.44299-3.64404-3.25842-6.46582-6.66382-6.46582s-6.22084 2.82178-6.66384 6.46582h-32.301a1.00013 1.00013 0 0 0 0 2zm38.96484-6.46582c6.248.2151 6.2463 10.71778-.00012 10.93164-6.24791-.2151-6.24617-10.71778.00012-10.93164z"/><path d="m59 51.53418h-8.37134c-.443-3.644-3.25842-6.46582-6.66382-6.46582s-6.22084 2.82178-6.66384 6.46582h-32.301a1.00013 1.00013 0 0 0 .00007 2h32.30093c.443 3.64404 3.25845 6.46582 6.66384 6.46582s6.22083-2.82178 6.66382-6.46582h8.37134a1.00012 1.00012 0 0 0 0-2zm-15.03516 6.46582c-6.248-.2151-6.24629-10.71778.00013-10.93164 6.24791.2151 6.24617 10.71778-.00013 10.93164z"/></g></svg>